# xmcd CD database file generated by LOLA_Freedb v0.9beta0
# 
# Track frame offsets:
#      150
#      12607
#      31955
#      47583
#      60285
#      77880
#      92270
#      109811
#      119977
#      132278
#      150154
#      164261
#      178354
#      193547
#      208170
# 
# Disc length: 3073 seconds
# 
# Revision: 0 
# Processed by: cddbd v1.5.2PL0 Copyright (c) Steve Scherf et al.
# Submitted via: LOLA_Freedb v0.9beta0
# 
DISCID=c70bff0f
DTITLE=The Lusatian Grass - Silver Moon
DYEAR=2007
DGENRE=
TTITLE0=The Lusatian Grass - The Place Where I Belong
TTITLE1=The Lusatian Grass - Sometimes I Feel So Lonely
TTITLE2=The Lusatian Grass - Days And  Nights
TTITLE3=The Lusatian Grass - The Next Summer Night
TTITLE4=The Lusatian Grass - I´m On My Way Alone
TTITLE5=The Lusatian Grass - Is That You Who´s Digging On My Grave?
TTITLE6=The Lusatian Grass - Silver Moon
TTITLE7=The Lusatian Grass - And The Live Is Oér
TTITLE8=The Lusatian Grass - Sing Glory
TTITLE9=The Lusatian Grass - Jenny , Dear
TTITLE10=The Lusatian Grass - The Graveyard On The Hill
TTITLE11=The Lusatian Grass - That´s The Upper Home
TTITLE12=The Lusatian Grass - Oh, I Fool
TTITLE13=The Lusatian Grass - And Am I Born To Die?
TTITLE14=The Lusatian Grass - REV.
EXTD=
EXTT0=
EXTT1=
EXTT2=
EXTT3=
EXTT4=
EXTT5=
EXTT6=
EXTT7=
EXTT8=
EXTT9=
EXTT10=
EXTT11=
EXTT12=
EXTT13=
EXTT14=
PLAYORDER=
